<svg width="41" height="38" viewBox="0 0 41 38" fill="none" xmlns="http://www.w3.org/2000/svg">
<rect width="41" height="38" fill="white"/>
<path fill-rule="evenodd" clip-rule="evenodd" d="M29.64 19.2047C29.64 18.5665 29.5827 17.9529 29.4764 17.3638H21V20.8451H25.8436C25.635 21.9701 25.0009 22.9233 24.0477 23.5615V25.8197H26.9564C28.6582 24.2529 29.64 21.9456 29.64 19.2047Z" fill="#4285F4"/>
<path fill-rule="evenodd" clip-rule="evenodd" d="M20.9998 28C23.4298 28 25.467 27.1941 26.9561 25.8195L24.0475 23.5613C23.2416 24.1013 22.2107 24.4204 20.9998 24.4204C18.6557 24.4204 16.6716 22.8372 15.9638 20.71H12.957V23.0418C14.4379 25.9831 17.4816 28 20.9998 28Z" fill="#34A853"/>
<path fill-rule="evenodd" clip-rule="evenodd" d="M15.9641 20.7098C15.7841 20.1698 15.6818 19.593 15.6818 18.9998C15.6818 18.4066 15.7841 17.8298 15.9641 17.2898V14.958H12.9573C12.3477 16.173 12 17.5476 12 18.9998C12 20.4521 12.3477 21.8266 12.9573 23.0416L15.9641 20.7098Z" fill="#FBBC05"/>
<path fill-rule="evenodd" clip-rule="evenodd" d="M20.9998 13.5795C22.3211 13.5795 23.5075 14.0336 24.4402 14.9255L27.0216 12.3441C25.4629 10.8918 23.4257 10 20.9998 10C17.4816 10 14.4379 12.0168 12.957 14.9582L15.9638 17.29C16.6716 15.1627 18.6557 13.5795 20.9998 13.5795Z" fill="#EA4335"/>
</svg>
