<svg width="24" height="24" viewBox="0 0 24 24" fill="none" xmlns="http://www.w3.org/2000/svg">
<path d="M20.7273 0H3.27273C1.46525 0 0 1.46525 0 3.27273V20.7273C0 22.5347 1.46525 24 3.27273 24H20.7273C22.5347 24 24 22.5347 24 20.7273V3.27273C24 1.46525 22.5347 0 20.7273 0Z" fill="white"/>
<path d="M8.6456 6.54545C8.6456 6.95001 8.52563 7.34547 8.30088 7.68185C8.07612 8.01822 7.75666 8.28039 7.38291 8.43521C7.00915 8.59002 6.59787 8.63053 6.20109 8.55161C5.80432 8.47268 5.43985 8.27787 5.15379 7.99181C4.86773 7.70575 4.67292 7.34128 4.59399 6.9445C4.51507 6.54772 4.55557 6.13645 4.71039 5.76269C4.8652 5.38894 5.12738 5.06948 5.46375 4.84472C5.80012 4.61996 6.19559 4.5 6.60014 4.5C7.14263 4.5 7.6629 4.7155 8.0465 5.0991C8.4301 5.4827 8.6456 6.00297 8.6456 6.54545Z" fill="#0077B5"/>
<path d="M8.18179 9.95454V18.9914C8.18215 19.058 8.16933 19.1241 8.14406 19.1858C8.1188 19.2475 8.08159 19.3036 8.03458 19.3509C7.98757 19.3981 7.93167 19.4356 7.87011 19.4612C7.80856 19.4868 7.74255 19.5 7.67588 19.5H5.51997C5.4533 19.5002 5.38726 19.4872 5.32563 19.4617C5.26401 19.4363 5.20801 19.399 5.16087 19.3518C5.11373 19.3047 5.07637 19.2487 5.05094 19.1871C5.02552 19.1254 5.01252 19.0594 5.0127 18.9927V9.95454C5.0127 9.82 5.06614 9.69097 5.16127 9.59584C5.25641 9.50071 5.38543 9.44727 5.51997 9.44727H7.67588C7.81018 9.44763 7.93886 9.50123 8.03369 9.59632C8.12853 9.69142 8.18179 9.82024 8.18179 9.95454Z" fill="#0077B5"/>
<path d="M19.4512 14.6592V19.0337C19.4514 19.095 19.4395 19.1557 19.4161 19.2124C19.3927 19.2691 19.3584 19.3206 19.315 19.3639C19.2717 19.4072 19.2202 19.4416 19.1635 19.465C19.1069 19.4883 19.0462 19.5003 18.9849 19.5001H16.6667C16.6054 19.5003 16.5447 19.4883 16.488 19.465C16.4313 19.4416 16.3799 19.4072 16.3365 19.3639C16.2932 19.3206 16.2588 19.2691 16.2355 19.2124C16.2121 19.1557 16.2001 19.095 16.2003 19.0337V14.7942C16.2003 14.1615 16.3858 12.0233 14.5462 12.0233C13.1212 12.0233 12.8308 13.4865 12.7735 14.1437V19.0337C12.7735 19.1562 12.7253 19.2738 12.6393 19.3611C12.5533 19.4484 12.4365 19.4983 12.314 19.5001H10.0749C10.0137 19.5001 9.95311 19.488 9.8966 19.4646C9.8401 19.4411 9.78877 19.4067 9.74558 19.3634C9.70238 19.3201 9.66816 19.2687 9.64487 19.2121C9.62158 19.1555 9.60969 19.0949 9.60987 19.0337V9.91509C9.60969 9.85391 9.62158 9.7933 9.64487 9.73672C9.66816 9.68015 9.70238 9.62873 9.74558 9.5854C9.78877 9.54208 9.8401 9.50771 9.8966 9.48425C9.95311 9.4608 10.0137 9.44873 10.0749 9.44873H12.314C12.4376 9.44873 12.5563 9.49786 12.6437 9.58532C12.7312 9.67278 12.7803 9.7914 12.7803 9.91509V10.7033C13.3094 9.90964 14.0935 9.29736 15.7667 9.29736C19.473 9.29736 19.4512 12.7583 19.4512 14.6592Z" fill="#0077B5"/>
</svg>
