<svg width="161" height="30" viewBox="0 0 161 30" fill="none" xmlns="http://www.w3.org/2000/svg">
<path d="M5.83617 0H0.5V15.4089H5.83617V0Z" fill="#07080C"/>
<path d="M13.2214 7.31689H19.7529L10.1905 18.4647L19.9664 29.6124H12.9653L5.83617 21.2193V29.6124H0.5V21.9941" fill="#07080C"/>
<path d="M29.529 6.97266C22.9976 6.97266 18.259 11.7933 18.259 18.4648C18.259 25.2653 22.8268 29.9999 29.3156 29.9999C35.9751 29.9999 40.7563 25.1362 40.7563 18.4648C40.799 11.7933 36.0605 6.97266 29.529 6.97266ZM29.3583 25.1792C25.9004 25.1792 23.6806 22.5537 23.6806 18.4648C23.6806 13.515 26.7969 11.7503 29.4863 11.7503C32.4319 11.7503 35.3775 13.8163 35.3775 18.4648C35.3775 21.6929 33.4991 25.1792 29.3583 25.1792Z" fill="#07080C"/>
<path d="M62.869 16.5279V29.5695H57.5755V17.2166C57.5755 13.7302 55.8252 11.7503 52.7516 11.7503C49.6353 11.7503 47.885 13.7302 47.885 17.2166V29.6125H42.5488V7.31699H47.885V9.08169C49.4218 7.7474 51.5136 6.97266 53.7334 6.97266C59.2404 6.97266 62.869 10.7173 62.869 16.5279Z" fill="#07080C"/>
<path d="M82.1224 0V9.59827C80.3721 8.00574 77.7681 6.97274 75.2921 6.97274C69.1875 6.97274 64.7905 11.7504 64.7905 18.3788C64.7905 24.9641 69.2729 29.9569 75.2494 29.9569C77.9389 29.9569 80.4148 28.967 82.1224 27.2023V29.5696H87.5013V0H82.1224ZM76.1886 25.1793C72.3039 25.1793 70.2548 21.6499 70.2548 18.3788C70.2548 15.1076 72.3039 11.7504 76.1886 11.7504C79.1342 11.7504 82.1224 14.0316 82.1224 18.4648C82.1224 22.8551 79.1342 25.1793 76.1886 25.1793Z" fill="#07080C"/>
<path d="M106.498 7.31699V9.64123C105.303 8.43607 103.083 6.97266 99.6249 6.97266C93.563 6.97266 89.166 11.7503 89.166 18.3787C89.166 24.964 93.6484 29.9569 99.5395 29.9569C102.229 29.9569 104.748 28.9669 106.498 27.2022V29.5695H111.877V7.31699H106.498ZM100.564 25.1792C96.6793 25.1792 94.6303 21.6498 94.6303 18.3787C94.6303 15.1075 96.6793 11.7503 100.564 11.7503C103.51 11.7503 106.498 14.0315 106.498 18.4648C106.498 22.855 103.51 25.1792 100.564 25.1792Z" fill="#07080C"/>
<path d="M130.873 0V9.59827C129.123 8.00574 126.519 6.97274 124.043 6.97274C117.939 6.97274 113.542 11.7504 113.542 18.3788C113.542 24.9641 118.024 29.9569 124 29.9569C126.69 29.9569 129.166 28.967 130.873 27.2023V29.5696H136.252V0H130.873ZM124.94 25.1793C121.055 25.1793 119.006 21.6499 119.006 18.3788C119.006 15.1076 121.055 11.7504 124.94 11.7504C127.885 11.7504 130.873 14.0316 130.873 18.4648C130.873 22.8551 127.885 25.1793 124.94 25.1793Z" fill="#07080C"/>
<path d="M149.272 6.97266C142.741 6.97266 138.002 11.7933 138.002 18.4648C138.002 25.2653 142.57 29.9999 149.059 29.9999C155.719 29.9999 160.5 25.1362 160.5 18.4648C160.542 11.7933 155.804 6.97266 149.272 6.97266ZM149.059 25.1792C145.601 25.1792 143.381 22.5537 143.381 18.4648C143.381 13.515 146.498 11.7503 149.187 11.7503C152.133 11.7503 155.078 13.8163 155.078 18.4648C155.078 21.6929 153.2 25.1792 149.059 25.1792Z" fill="#07080C"/>
</svg>
