<svg width="111" height="22" viewBox="0 0 111 22" fill="none" xmlns="http://www.w3.org/2000/svg">
<path d="M3.70197 0.943848H0V11.6004H3.70197V0.943848Z" fill="#07080C"/>
<path d="M8.82549 6.00391H13.3567L6.72278 13.7135L13.5048 21.4231H8.6478L3.70197 15.6186V21.4231H0V16.1544" fill="#07080C"/>
<path d="M20.1386 5.76611C15.6074 5.76611 12.3201 9.1 12.3201 13.7139C12.3201 18.417 15.489 21.6914 19.9905 21.6914C24.6106 21.6914 27.9276 18.3277 27.9276 13.7139C27.9572 9.1 24.6698 5.76611 20.1386 5.76611ZM20.0202 18.3575C17.6213 18.3575 16.0813 16.5417 16.0813 13.7139C16.0813 10.2907 18.2432 9.07023 20.109 9.07023C22.1525 9.07023 24.196 10.499 24.196 13.7139C24.196 15.9464 22.8929 18.3575 20.0202 18.3575Z" fill="#07080C"/>
<path d="M43.268 12.3744V21.3937H39.5956V12.8506C39.5956 10.4395 38.3814 9.07023 36.2491 9.07023C34.0871 9.07023 32.8729 10.4395 32.8729 12.8506V21.4235H29.1709V6.00425H32.8729V7.22469C33.939 6.30192 35.3902 5.76611 36.9302 5.76611C40.7507 5.76611 43.268 8.35583 43.268 12.3744Z" fill="#07080C"/>
<path d="M56.6256 0.943848V7.58186C55.4113 6.48048 53.6047 5.76608 51.887 5.76608C47.652 5.76608 44.6016 9.0702 44.6016 13.6543C44.6016 18.2086 47.7112 21.6616 51.8574 21.6616C53.7232 21.6616 55.4409 20.9769 56.6256 19.7565V21.3937H60.3571V0.943848H56.6256ZM52.509 18.3575C49.8139 18.3575 48.3924 15.9166 48.3924 13.6543C48.3924 11.392 49.8139 9.0702 52.509 9.0702C54.5525 9.0702 56.6256 10.6478 56.6256 13.7138C56.6256 16.75 54.5525 18.3575 52.509 18.3575Z" fill="#07080C"/>
<path d="M73.5357 6.00425V7.61166C72.7065 6.77819 71.1665 5.76611 68.7676 5.76611C64.5621 5.76611 61.5117 9.07023 61.5117 13.6543C61.5117 18.2087 64.6214 21.6616 68.7083 21.6616C70.5741 21.6616 72.3215 20.977 73.5357 19.7565V21.3937H77.2673V6.00425H73.5357ZM69.4191 18.3575C66.7241 18.3575 65.3025 15.9166 65.3025 13.6543C65.3025 11.392 66.7241 9.07023 69.4191 9.07023C71.4626 9.07023 73.5357 10.6479 73.5357 13.7139C73.5357 16.7501 71.4626 18.3575 69.4191 18.3575Z" fill="#07080C"/>
<path d="M90.4459 0.943848V7.58186C89.2316 6.48048 87.4251 5.76608 85.7074 5.76608C81.4723 5.76608 78.4219 9.0702 78.4219 13.6543C78.4219 18.2086 81.5315 21.6616 85.6777 21.6616C87.5435 21.6616 89.2612 20.9769 90.4459 19.7565V21.3937H94.1775V0.943848H90.4459ZM86.3293 18.3575C83.6343 18.3575 82.2127 15.9166 82.2127 13.6543C82.2127 11.392 83.6343 9.0702 86.3293 9.0702C88.3728 9.0702 90.4459 10.6478 90.4459 13.7138C90.4459 16.75 88.3728 18.3575 86.3293 18.3575Z" fill="#07080C"/>
<path d="M103.21 5.76611C98.6789 5.76611 95.3916 9.1 95.3916 13.7139C95.3916 18.417 98.5605 21.6914 103.062 21.6914C107.682 21.6914 110.999 18.3277 110.999 13.7139C111.029 9.1 107.741 5.76611 103.21 5.76611ZM103.062 18.3575C100.663 18.3575 99.1232 16.5417 99.1232 13.7139C99.1232 10.2907 101.285 9.07023 103.151 9.07023C105.194 9.07023 107.238 10.499 107.238 13.7139C107.238 15.9464 105.935 18.3575 103.062 18.3575Z" fill="#07080C"/>
</svg>
