<svg width="160" height="30" viewBox="0 0 160 30" fill="none" xmlns="http://www.w3.org/2000/svg">
<path d="M5.33617 0H0V15.4089H5.33617V0Z" fill="white"/>
<path d="M12.7214 7.31689H19.2529L9.69049 18.4647L19.4664 29.6124H12.4653L5.33617 21.2193V29.6124H0V21.9941" fill="white"/>
<path d="M29.0288 6.97266C22.4973 6.97266 17.7588 11.7933 17.7588 18.4648C17.7588 25.2653 22.3266 29.9999 28.8153 29.9999C35.4749 29.9999 40.2561 25.1362 40.2561 18.4648C40.2988 11.7933 35.5603 6.97266 29.0288 6.97266ZM28.858 25.1792C25.4002 25.1792 23.1803 22.5537 23.1803 18.4648C23.1803 13.515 26.2967 11.7503 28.9861 11.7503C31.9317 11.7503 34.8772 13.8163 34.8772 18.4648C34.8772 21.6929 32.9989 25.1792 28.858 25.1792Z" fill="white"/>
<path d="M62.369 16.5279V29.5695H57.0755V17.2166C57.0755 13.7302 55.3252 11.7503 52.2516 11.7503C49.1353 11.7503 47.385 13.7302 47.385 17.2166V29.6125H42.0488V7.31699H47.385V9.08169C48.9218 7.7474 51.0136 6.97266 53.2334 6.97266C58.7404 6.97266 62.369 10.7173 62.369 16.5279Z" fill="white"/>
<path d="M81.6224 0V9.59827C79.8721 8.00574 77.2681 6.97274 74.7921 6.97274C68.6875 6.97274 64.2905 11.7504 64.2905 18.3788C64.2905 24.9641 68.7729 29.9569 74.7494 29.9569C77.4389 29.9569 79.9148 28.967 81.6224 27.2023V29.5696H87.0013V0H81.6224ZM75.6886 25.1793C71.8039 25.1793 69.7548 21.6499 69.7548 18.3788C69.7548 15.1076 71.8039 11.7504 75.6886 11.7504C78.6342 11.7504 81.6224 14.0316 81.6224 18.4648C81.6224 22.8551 78.6342 25.1793 75.6886 25.1793Z" fill="white"/>
<path d="M105.998 7.31699V9.64123C104.803 8.43607 102.583 6.97266 99.1249 6.97266C93.063 6.97266 88.666 11.7503 88.666 18.3787C88.666 24.964 93.1484 29.9569 99.0395 29.9569C101.729 29.9569 104.248 28.9669 105.998 27.2022V29.5695H111.377V7.31699H105.998ZM100.064 25.1792C96.1793 25.1792 94.1303 21.6498 94.1303 18.3787C94.1303 15.1075 96.1793 11.7503 100.064 11.7503C103.01 11.7503 105.998 14.0315 105.998 18.4648C105.998 22.855 103.01 25.1792 100.064 25.1792Z" fill="white"/>
<path d="M130.373 0V9.59827C128.623 8.00574 126.019 6.97274 123.543 6.97274C117.439 6.97274 113.042 11.7504 113.042 18.3788C113.042 24.9641 117.524 29.9569 123.5 29.9569C126.19 29.9569 128.666 28.967 130.373 27.2023V29.5696H135.752V0H130.373ZM124.44 25.1793C120.555 25.1793 118.506 21.6499 118.506 18.3788C118.506 15.1076 120.555 11.7504 124.44 11.7504C127.385 11.7504 130.373 14.0316 130.373 18.4648C130.373 22.8551 127.385 25.1793 124.44 25.1793Z" fill="white"/>
<path d="M148.772 6.97266C142.241 6.97266 137.502 11.7933 137.502 18.4648C137.502 25.2653 142.07 29.9999 148.559 29.9999C155.219 29.9999 160 25.1362 160 18.4648C160.042 11.7933 155.304 6.97266 148.772 6.97266ZM148.559 25.1792C145.101 25.1792 142.881 22.5537 142.881 18.4648C142.881 13.515 145.998 11.7503 148.687 11.7503C151.633 11.7503 154.578 13.8163 154.578 18.4648C154.578 21.6929 152.7 25.1792 148.559 25.1792Z" fill="white"/>
</svg>
